<mxfile host="app.diagrams.net" agent="Mozilla/5.0 (Windows NT 10.0; Win64; x64) AppleWebKit/537.36 (KHTML, like Gecko) Chrome/130.0.0.0 Safari/537.36 Edg/130.0.0.0" version="24.8.3">
  <diagram name="PÃ¡gina-1" id="hB1Eq5nqDwltu6nzwohb">
    <mxGraphModel dx="646" dy="343" grid="1" gridSize="10" guides="1" tooltips="1" connect="1" arrows="1" fold="1" page="1" pageScale="1" pageWidth="827" pageHeight="1169" math="0" shadow="0">
      <root>
        <mxCell id="0" />
        <mxCell id="1" parent="0" />
        <mxCell id="gaGjuGpyRS6BUhE4ZGnP-50" value="" style="rounded=0;whiteSpace=wrap;html=1;" vertex="1" parent="1">
          <mxGeometry x="550" y="40" width="190" height="360" as="geometry" />
        </mxCell>
        <mxCell id="gaGjuGpyRS6BUhE4ZGnP-1" value="Pozo" style="rounded=0;whiteSpace=wrap;html=1;" vertex="1" parent="1">
          <mxGeometry x="80" y="70" width="120" height="60" as="geometry" />
        </mxCell>
        <mxCell id="gaGjuGpyRS6BUhE4ZGnP-15" value="" style="group" vertex="1" connectable="0" parent="1">
          <mxGeometry x="79.99999999999994" y="30" width="35" height="40" as="geometry" />
        </mxCell>
        <mxCell id="gaGjuGpyRS6BUhE4ZGnP-16" value="" style="ellipse;whiteSpace=wrap;html=1;aspect=fixed;" vertex="1" parent="gaGjuGpyRS6BUhE4ZGnP-15">
          <mxGeometry x="10" y="20" width="10" height="10" as="geometry" />
        </mxCell>
        <mxCell id="gaGjuGpyRS6BUhE4ZGnP-17" value="" style="endArrow=none;html=1;rounded=0;" edge="1" parent="gaGjuGpyRS6BUhE4ZGnP-15">
          <mxGeometry width="50" height="50" relative="1" as="geometry">
            <mxPoint x="15" y="40" as="sourcePoint" />
            <mxPoint x="14.879999999999995" y="30" as="targetPoint" />
            <Array as="points">
              <mxPoint x="15" y="40" />
            </Array>
          </mxGeometry>
        </mxCell>
        <mxCell id="gaGjuGpyRS6BUhE4ZGnP-18" value="Latitud" style="text;html=1;align=center;verticalAlign=middle;resizable=0;points=[];autosize=1;strokeColor=none;fillColor=none;fontSize=6;" vertex="1" parent="gaGjuGpyRS6BUhE4ZGnP-15">
          <mxGeometry x="-5" width="40" height="20" as="geometry" />
        </mxCell>
        <mxCell id="gaGjuGpyRS6BUhE4ZGnP-22" value="" style="group" vertex="1" connectable="0" parent="1">
          <mxGeometry x="99.99999999999994" y="30" width="60" height="40" as="geometry" />
        </mxCell>
        <mxCell id="gaGjuGpyRS6BUhE4ZGnP-23" value="" style="ellipse;whiteSpace=wrap;html=1;aspect=fixed;" vertex="1" parent="gaGjuGpyRS6BUhE4ZGnP-22">
          <mxGeometry x="10" y="20" width="10" height="10" as="geometry" />
        </mxCell>
        <mxCell id="gaGjuGpyRS6BUhE4ZGnP-24" value="" style="endArrow=none;html=1;rounded=0;" edge="1" parent="gaGjuGpyRS6BUhE4ZGnP-22">
          <mxGeometry width="50" height="50" relative="1" as="geometry">
            <mxPoint x="15" y="40" as="sourcePoint" />
            <mxPoint x="14.879999999999995" y="30" as="targetPoint" />
            <Array as="points">
              <mxPoint x="15" y="40" />
            </Array>
          </mxGeometry>
        </mxCell>
        <mxCell id="gaGjuGpyRS6BUhE4ZGnP-25" value="Longitud" style="text;html=1;align=center;verticalAlign=middle;resizable=0;points=[];autosize=1;strokeColor=none;fillColor=none;fontSize=6;" vertex="1" parent="gaGjuGpyRS6BUhE4ZGnP-22">
          <mxGeometry x="-10" width="50" height="20" as="geometry" />
        </mxCell>
        <mxCell id="gaGjuGpyRS6BUhE4ZGnP-31" value="" style="group" vertex="1" connectable="0" parent="gaGjuGpyRS6BUhE4ZGnP-22">
          <mxGeometry x="-14.999999999999943" y="30" width="35" height="10" as="geometry" />
        </mxCell>
        <mxCell id="gaGjuGpyRS6BUhE4ZGnP-27" value="" style="ellipse;whiteSpace=wrap;html=1;aspect=fixed;labelBackgroundColor=#000000;labelBorderColor=default;textShadow=0;fillColor=#000000;gradientColor=none;fillStyle=solid;rotation=-90;" vertex="1" parent="gaGjuGpyRS6BUhE4ZGnP-31">
          <mxGeometry width="10" height="10" as="geometry" />
        </mxCell>
        <mxCell id="gaGjuGpyRS6BUhE4ZGnP-28" value="" style="endArrow=none;html=1;rounded=0;" edge="1" parent="gaGjuGpyRS6BUhE4ZGnP-31">
          <mxGeometry width="50" height="50" relative="1" as="geometry">
            <mxPoint x="20" y="5" as="sourcePoint" />
            <mxPoint x="10" y="5" as="targetPoint" />
            <Array as="points">
              <mxPoint x="35" y="5" />
              <mxPoint x="20" y="5" />
            </Array>
          </mxGeometry>
        </mxCell>
        <mxCell id="gaGjuGpyRS6BUhE4ZGnP-32" value="" style="group" vertex="1" connectable="0" parent="gaGjuGpyRS6BUhE4ZGnP-22">
          <mxGeometry x="20" width="40" height="40" as="geometry" />
        </mxCell>
        <mxCell id="gaGjuGpyRS6BUhE4ZGnP-33" value="" style="ellipse;whiteSpace=wrap;html=1;aspect=fixed;" vertex="1" parent="gaGjuGpyRS6BUhE4ZGnP-32">
          <mxGeometry x="10" y="20" width="10" height="10" as="geometry" />
        </mxCell>
        <mxCell id="gaGjuGpyRS6BUhE4ZGnP-34" value="" style="endArrow=none;html=1;rounded=0;" edge="1" parent="gaGjuGpyRS6BUhE4ZGnP-32">
          <mxGeometry width="50" height="50" relative="1" as="geometry">
            <mxPoint x="15" y="40" as="sourcePoint" />
            <mxPoint x="14.879999999999995" y="30" as="targetPoint" />
            <Array as="points">
              <mxPoint x="15" y="40" />
            </Array>
          </mxGeometry>
        </mxCell>
        <mxCell id="gaGjuGpyRS6BUhE4ZGnP-35" value="Nombre" style="text;html=1;align=center;verticalAlign=middle;resizable=0;points=[];autosize=1;strokeColor=none;fillColor=none;fontSize=6;" vertex="1" parent="gaGjuGpyRS6BUhE4ZGnP-32">
          <mxGeometry x="-5" width="50" height="20" as="geometry" />
        </mxCell>
        <mxCell id="gaGjuGpyRS6BUhE4ZGnP-36" value="" style="group" vertex="1" connectable="0" parent="1">
          <mxGeometry x="159.99999999999994" y="30" width="35" height="40" as="geometry" />
        </mxCell>
        <mxCell id="gaGjuGpyRS6BUhE4ZGnP-37" value="" style="ellipse;whiteSpace=wrap;html=1;aspect=fixed;" vertex="1" parent="gaGjuGpyRS6BUhE4ZGnP-36">
          <mxGeometry x="10" y="20" width="10" height="10" as="geometry" />
        </mxCell>
        <mxCell id="gaGjuGpyRS6BUhE4ZGnP-38" value="" style="endArrow=none;html=1;rounded=0;" edge="1" parent="gaGjuGpyRS6BUhE4ZGnP-36">
          <mxGeometry width="50" height="50" relative="1" as="geometry">
            <mxPoint x="15" y="40" as="sourcePoint" />
            <mxPoint x="14.879999999999995" y="30" as="targetPoint" />
            <Array as="points">
              <mxPoint x="15" y="40" />
            </Array>
          </mxGeometry>
        </mxCell>
        <mxCell id="gaGjuGpyRS6BUhE4ZGnP-39" value="Fecha" style="text;html=1;align=center;verticalAlign=middle;resizable=0;points=[];autosize=1;strokeColor=none;fillColor=none;fontSize=6;" vertex="1" parent="gaGjuGpyRS6BUhE4ZGnP-36">
          <mxGeometry x="-5" width="40" height="20" as="geometry" />
        </mxCell>
        <mxCell id="gaGjuGpyRS6BUhE4ZGnP-40" value="Realizan" style="rhombus;whiteSpace=wrap;html=1;" vertex="1" parent="1">
          <mxGeometry x="374" y="50" width="80" height="80" as="geometry" />
        </mxCell>
        <mxCell id="gaGjuGpyRS6BUhE4ZGnP-41" value="" style="endArrow=none;html=1;rounded=0;exitX=1.03;exitY=0.422;exitDx=0;exitDy=0;exitPerimeter=0;entryX=0;entryY=0.5;entryDx=0;entryDy=0;" edge="1" parent="1" source="gaGjuGpyRS6BUhE4ZGnP-1" target="gaGjuGpyRS6BUhE4ZGnP-40">
          <mxGeometry width="50" height="50" relative="1" as="geometry">
            <mxPoint x="340" y="150" as="sourcePoint" />
            <mxPoint x="390" y="100" as="targetPoint" />
          </mxGeometry>
        </mxCell>
        <mxCell id="gaGjuGpyRS6BUhE4ZGnP-42" value="Monitoreo" style="rounded=0;whiteSpace=wrap;html=1;" vertex="1" parent="1">
          <mxGeometry x="580" y="60" width="120" height="60" as="geometry" />
        </mxCell>
        <mxCell id="gaGjuGpyRS6BUhE4ZGnP-43" value="" style="endArrow=none;html=1;rounded=0;entryX=0;entryY=0.5;entryDx=0;entryDy=0;exitX=1;exitY=0.5;exitDx=0;exitDy=0;" edge="1" parent="1" source="gaGjuGpyRS6BUhE4ZGnP-40" target="gaGjuGpyRS6BUhE4ZGnP-42">
          <mxGeometry width="50" height="50" relative="1" as="geometry">
            <mxPoint x="430" y="150" as="sourcePoint" />
            <mxPoint x="480" y="100" as="targetPoint" />
          </mxGeometry>
        </mxCell>
        <mxCell id="gaGjuGpyRS6BUhE4ZGnP-44" value="Parametro" style="rounded=0;whiteSpace=wrap;html=1;" vertex="1" parent="1">
          <mxGeometry x="580" y="320" width="120" height="60" as="geometry" />
        </mxCell>
        <mxCell id="gaGjuGpyRS6BUhE4ZGnP-45" value="Mide" style="rhombus;whiteSpace=wrap;html=1;" vertex="1" parent="1">
          <mxGeometry x="600" y="180" width="80" height="80" as="geometry" />
        </mxCell>
        <mxCell id="gaGjuGpyRS6BUhE4ZGnP-46" value="" style="endArrow=none;html=1;rounded=0;entryX=0.5;entryY=1;entryDx=0;entryDy=0;exitX=0.5;exitY=0;exitDx=0;exitDy=0;" edge="1" parent="1" source="gaGjuGpyRS6BUhE4ZGnP-44" target="gaGjuGpyRS6BUhE4ZGnP-45">
          <mxGeometry width="50" height="50" relative="1" as="geometry">
            <mxPoint x="570" y="290" as="sourcePoint" />
            <mxPoint x="620" y="240" as="targetPoint" />
          </mxGeometry>
        </mxCell>
        <mxCell id="gaGjuGpyRS6BUhE4ZGnP-49" value="" style="endArrow=none;html=1;rounded=0;exitX=0.5;exitY=1;exitDx=0;exitDy=0;" edge="1" parent="1" source="gaGjuGpyRS6BUhE4ZGnP-42" target="gaGjuGpyRS6BUhE4ZGnP-45">
          <mxGeometry width="50" height="50" relative="1" as="geometry">
            <mxPoint x="570" y="290" as="sourcePoint" />
            <mxPoint x="620" y="240" as="targetPoint" />
          </mxGeometry>
        </mxCell>
        <mxCell id="gaGjuGpyRS6BUhE4ZGnP-51" value="obtiene" style="rhombus;whiteSpace=wrap;html=1;" vertex="1" parent="1">
          <mxGeometry x="374" y="310" width="80" height="80" as="geometry" />
        </mxCell>
        <mxCell id="gaGjuGpyRS6BUhE4ZGnP-52" value="" style="endArrow=none;html=1;rounded=0;entryX=-0.003;entryY=0.865;entryDx=0;entryDy=0;entryPerimeter=0;exitX=0.947;exitY=0.497;exitDx=0;exitDy=0;exitPerimeter=0;" edge="1" parent="1" source="gaGjuGpyRS6BUhE4ZGnP-51" target="gaGjuGpyRS6BUhE4ZGnP-50">
          <mxGeometry width="50" height="50" relative="1" as="geometry">
            <mxPoint x="460" y="350" as="sourcePoint" />
            <mxPoint x="520" y="200" as="targetPoint" />
          </mxGeometry>
        </mxCell>
        <mxCell id="gaGjuGpyRS6BUhE4ZGnP-54" value="Resultado" style="rounded=0;whiteSpace=wrap;html=1;" vertex="1" parent="1">
          <mxGeometry x="195" y="320" width="120" height="60" as="geometry" />
        </mxCell>
        <mxCell id="gaGjuGpyRS6BUhE4ZGnP-56" value="" style="endArrow=none;html=1;rounded=0;exitX=1;exitY=0.5;exitDx=0;exitDy=0;entryX=0;entryY=0.5;entryDx=0;entryDy=0;" edge="1" parent="1" source="gaGjuGpyRS6BUhE4ZGnP-54" target="gaGjuGpyRS6BUhE4ZGnP-51">
          <mxGeometry width="50" height="50" relative="1" as="geometry">
            <mxPoint x="320" y="250" as="sourcePoint" />
            <mxPoint x="370" y="200" as="targetPoint" />
          </mxGeometry>
        </mxCell>
      </root>
    </mxGraphModel>
  </diagram>
</mxfile>
